<?xml version="1.0" encoding="UTF-8"?>
<!DOCTYPE svg PUBLIC "-//W3C//DTD SVG 1.0//EN" "http://www.w3.org/TR/2001/REC-SVG-20010904/DTD/svg10.dtd">
<!-- Creator: CorelDRAW 2020 (64 Bit) -->
<svg xmlns="http://www.w3.org/2000/svg" xml:space="preserve" width="300px" height="300px" version="1.0" style="shape-rendering:geometricPrecision; text-rendering:geometricPrecision; image-rendering:optimizeQuality; fill-rule:evenodd; clip-rule:evenodd"
viewBox="0 0 300 300"
 xmlns:xlink="http://www.w3.org/1999/xlink"
 xmlns:xodm="http://www.corel.com/coreldraw/odm/2003">
 <defs>
  <style type="text/css">
   <![CDATA[
    .fil0 {fill:#F2F2F2}
    .fil1 {fill:#FD2403}
   ]]>
  </style>
 </defs>
 <g id="Camada_x0020_1">
  <metadata id="CorelCorpID_0Corel-Layer"/>
  <g id="_2584742480816">
   <path class="fil0" d="M106.72 200.58l3.78 8.32c-19.57,0 -39.14,0 -58.71,0 -9.72,0 -19.75,0.25 -29.43,0.03 -7.82,-0.18 -14.4,-6.49 -14.4,-14.45l0 -160.91c0,-3.92 2.75,-8.26 4.97,-10.01 2.57,-2.03 5.92,-3.86 10.57,-3.86l47.16 0c2.03,0 4.44,1.53 4.44,3.33 0,6.43 -3.33,4.99 -13.87,4.99l-34.98 -0.02c-5.84,0 -9.97,1.46 -9.97,7.24l0 23.3 237.48 0c0,-29.32 2.97,-30.53 -14.43,-30.52 -47.73,0.03 -96.72,-0.41 -144.27,0.01 -4.13,0.04 -7.2,0.21 -7.2,-3.89 0,-2.53 1.32,-4.44 4.44,-4.44l153.14 0c9.75,0 16.64,6.49 16.64,15.54l0 73.24c0,6.23 -8.32,5.21 -8.32,1.11l0 -42.17 -237.48 0 0 127.06c0,3.37 3.12,5.71 6.15,6.06l84.29 0.04z"/>
   <path class="fil0" d="M106.72 200.58l3.78 8.32c0.03,0 0.07,0 0.11,0 0.06,0.24 0.14,0.49 0.22,0.73 2.82,8.45 16.52,22.19 25.07,28.36 24.28,17.55 54.77,19.82 82.36,7.55 2.19,-0.98 2.73,-1.23 4.81,-2.4 1.77,-1 3,-1.76 4.61,-2.61l24.27 24c2.71,2.74 5.44,5.41 10.69,5.41 1.67,7.19 10.97,12.86 20.32,9.23 14.47,-5.62 9.73,-27.21 -0.9,-28.1 0,-7.17 -7.61,-12.88 -13.46,-18.72l-15.95 -16.23c3.66,-6.92 6.07,-9.56 8.95,-18.24 8.53,-25.68 4.86,-54 -11.08,-75.62 -1.36,-1.84 -2.8,-3.98 -4.38,-5.61 -3.69,-3.81 -5.92,-6.56 -10.45,-10.08 -39.38,-30.59 -90.83,-22.28 -118.83,15.37l-7.73 12.8c-6.49,14.09 -7.95,22.74 -7.95,39.21 0,8.44 2.84,21 5.54,26.63zm128.17 34.4c2.87,-1.52 10.53,-9.14 12.21,-11.65l25.14 24.81c3.37,3.68 -1.24,4.53 2.53,8.56 1.13,1.2 1.84,1.18 3.81,1.74 2.8,0.79 5.14,2.84 5.14,6.5 0,7.81 -9.35,9.04 -12.55,3.68 -1.64,-2.75 -0.85,-6.16 -4.76,-6.9 -6.81,-1.28 -3.35,1.77 -8.35,-3.29 -3.67,-3.72 -21.55,-21.04 -23.17,-23.45zm-125.39 -62.7c0,-22.31 7.29,-39.66 22.05,-54.51 3.81,-3.83 10.55,-9.22 15.49,-11.71 6.96,-3.51 11.63,-6.04 20.02,-7.72 11.69,-2.35 20.17,-2.87 32.19,-0.27 22.74,4.91 40.7,19.53 51,40 14.29,28.39 7.82,62.85 -14.94,85.68 -22.55,22.62 -59.91,27.86 -87.56,11.82 -6.06,-3.51 -10.85,-6.71 -15.92,-11.82 -13.14,-13.26 -22.33,-31.13 -22.33,-51.47z"/>
   <path class="fil0" d="M67.88 142.88l0 -24.42 8.88 0 0 1.67c0,7.75 -4.3,19.68 -8.88,22.75zm-17.75 -24.42l9.43 0 0 24.42c-1.84,-0.49 -3.01,-2.73 -4.01,-4.32 -2.88,-4.55 -5.27,-14.71 -5.42,-20.1zm-16.65 0l8.33 0c0,7.37 2.42,16.22 4.99,21.09 -1.59,-0.43 -3.66,-2.25 -4.87,-3.46 -3.87,-3.87 -8.29,-11.87 -8.45,-17.63zm47.17 21.09c0.42,-1.81 1.56,-4.31 2.15,-6.17 0.74,-2.32 1.31,-4.59 1.74,-7.13 1.62,-9.4 -2.11,-7.79 9.42,-7.79 -1.71,3.58 -1.34,13.07 -13.31,21.09zm-12.77 -53.27c2.99,1.08 5.35,6.92 6.33,9.76 1.4,4.04 2.55,8.96 2.55,14.1l-8.88 0 0 -23.86zm-8.32 -0.55l0 24.41 -9.43 0c0.19,-8.35 4.43,-21.07 9.43,-24.41zm-13.31 3.88c-1.34,5.72 -4.44,11.84 -4.44,20.53l-8.33 0c0.67,-8 7.1,-17.53 12.77,-20.53zm34.4 0c4.41,1.18 9.46,9.49 11.26,13.7 1.4,3.26 1.36,5.4 2.05,6.83 -11.04,0 -7.9,1.75 -9.42,-7.22 -0.85,-5.02 -2,-9.36 -3.89,-13.31zm-34.4 0l0 0zm-21.64 24.97c0,15.82 9.86,29.05 22.55,35.15 9.13,4.39 22.33,5.02 31.46,0.56 12.94,-6.33 23.67,-18.24 23.67,-32.94 0,-12.94 -2.18,-21.32 -11.24,-30.38 -11.62,-11.61 -30.38,-14.77 -44.82,-7.36 -12.6,6.46 -21.62,20.02 -21.62,34.97z"/>
   <path class="fil0" d="M117.27 170.62c0,17.84 6.03,30.33 15.84,42.97 2.78,3.56 7.48,7.7 11.18,10.46 5.02,3.74 8.83,5.59 14.6,8.15 3.29,1.46 8.87,3.12 8.87,-2.77 0,-6.58 -12.62,-2.9 -28.69,-21.8 -21.56,-25.33 -16.25,-64.23 10.29,-83.7 20.19,-14.82 48.16,-14.87 68.42,0 5.2,3.81 6.78,5.46 10.84,10.24 1.14,1.34 2.09,2.7 3.06,4.15 13.82,20.46 12.78,47.64 -1.85,67.18 -2.18,2.92 -4.56,5.82 -7.46,8.08 -1.67,1.31 -2.51,2.17 -4.28,3.49 -23.7,17.7 -38.68,6.1 -38.68,16.25 0,7.97 24.04,0.64 26.85,-0.34 43.43,-15.22 59.98,-73.31 23.78,-109.66 -19.66,-19.75 -47.29,-23.67 -73.46,-13.27 -4.51,1.8 -11.69,6.46 -15.33,9.65 -5.14,4.5 -7.69,6.71 -12,12.96 -7.4,10.72 -11.98,23.27 -11.98,37.96z"/>
   <path class="fil1" d="M216.03 182.27c-16.78,0 -16.06,-23.3 0,-23.3 14.54,0 14.54,23.3 0,23.3zm-2.22 8.32c6.22,0 11.59,-0.91 16.24,-5.95 12.56,-13.6 1.37,-34 -12.36,-34 -6.96,0 -11.93,0.67 -17.07,6.23 -12.47,13.49 -1.44,33.72 13.19,33.72z"/>
   <path class="fil1" d="M133.91 160.08c0,3.91 -0.27,5.67 2.36,8.74 3.33,3.9 16.06,5.64 16.51,9.57 0.17,1.5 -1.75,3.88 -6.11,3.88 -6.14,0 -6.78,-4.44 -10.54,-4.44 -2.23,0 -3.68,1.07 -4.17,3.1 -0.56,2.33 0.78,3.72 2.25,4.93 12.09,10.01 26.89,2.99 26.89,-6.92 0,-13.63 -18.86,-12.38 -18.86,-17.2 0,-2.81 3.71,-2.77 5.54,-2.77 2.69,0 4.49,2.17 6.6,2.9 2.21,0.77 5.61,-0.67 5.61,-3.46 0,-5.73 -8.78,-7.77 -14.98,-7.77 -4.99,0 -11.1,4.77 -11.1,9.44z"/>
   <path class="fil1" d="M168.31 154.53l0 32.18c0,1.38 0.1,1.63 0.82,2.51 1.94,2.37 10.92,1.37 16.38,1.37 5.74,0 5.74,-8.32 0,-8.32l-8.87 0 0 -7.21c5.72,0 12.2,1.16 12.2,-5 0,-4.83 -9.24,-3.88 -12.2,-3.88l0 -7.21 8.87 0c5.74,0 5.74,-8.33 0,-8.33 -9.72,0 -17.2,-1.76 -17.2,3.89z"/>
   <path class="fil0" d="M29.04 171.17c0,2.03 1.54,4.44 3.33,4.44l54.38 0c5.57,0 5.21,-8.32 -0.55,-8.32l-52.72 0c-2.37,0 -4.44,1.71 -4.44,3.88z"/>
   <path class="fil0" d="M29.04 188.93c0,5.88 11.38,4.44 17.76,4.44 10.83,0 7.62,-8.88 2.22,-8.88 -9.36,0 -19.98,-1.91 -19.98,4.44z"/>
   <path class="fil0" d="M30.71 44.11c0,8.86 11.65,8.92 11.65,0 0,-7.02 -11.65,-7.36 -11.65,0z"/>
   <path class="fil0" d="M52.9 44.11c0,8.86 11.66,8.92 11.66,0 0,-7.02 -11.66,-7.36 -11.66,0z"/>
   <path class="fil0" d="M75.1 44.11c0,8.86 11.65,8.92 11.65,0 0,-7.02 -11.65,-7.36 -11.65,0z"/>
  </g>
 </g>
</svg>
